<svg width="182" height="22" viewBox="0 0 182 22" fill="none" xmlns="http://www.w3.org/2000/svg">
<g clip-path="url(#clip0_5_20)">
<path d="M0 1.26733L15.1632 1.80708L15.1217 7.3977L7.25257 7.61466V15.6712L15.1217 15.4833L15.1632 21.3438L0.282029 21.4788L0 1.26733ZM14.4886 13.6339L8.3088 13.2423L8.46364 9.69956L14.5328 9.65988L14.4913 13.6339H14.4886Z" fill="white"/>
<path d="M24.7661 6.15683L24.1743 21.5687L17.6849 21.7301L17.0379 6.19652L24.7661 6.15683ZM25.5264 11.8824L25.626 6.76272L35.9753 6.5881L35.3283 21.8783L28.8389 21.6481L28.5016 12.057L25.532 11.8824H25.5264Z" fill="white"/>
<path d="M50.3892 16.1527L50.4307 21.8783L38.5053 21.4735L37.8583 1.45254L45.5864 1.39963L45.1634 16.0839L50.3864 16.1501L50.3892 16.1527ZM49.2639 12.61L45.7579 12.3533L45.9127 6.38435L49.3053 6.34467L49.2639 12.61Z" fill="white"/>
<path d="M59.8372 7.42417L59.2455 21.8254L52.756 22L52.109 7.46386L59.8372 7.42417Z" fill="white"/>
<path d="M59.7542 6.02191L59.6408 1.30706V1.30441L52.474 1.45258L52.2777 6.07483L59.7542 6.02191Z" fill="#DC7171"/>
<path d="M73.8032 16.1527L73.8446 21.8783L61.9192 21.4735L61.2722 1.45254L69.0004 1.39963L68.5773 16.0839L73.8004 16.1501L73.8032 16.1527ZM72.6778 12.61L69.1718 12.3533L69.3266 6.38435L72.7193 6.34467L72.6778 12.61Z" fill="white"/>
<path d="M75.4345 21.6904L76.0815 6.73627L94.3692 6.92412L93.7222 21.8783L75.4345 21.6904ZM87.0917 16.666L86.8954 12.3269L82.7562 12.2052L82.9968 16.7719L87.0945 16.6634L87.0917 16.666Z" fill="white"/>
<path d="M105.327 13.5942L105.186 1.26733L121.897 1.80708L121.856 7.3977L112.438 7.61466V9.71544L121.9 9.82392L121.759 21.4761L105.33 21.3412L105.371 15.4807L114.791 15.6685V13.5545L105.33 13.5942H105.327Z" fill="white"/>
<path d="M131.105 7.42417L130.513 21.8254L124.024 22L123.377 7.46386L131.105 7.42417Z" fill="white"/>
<path d="M131.022 6.02191L130.908 1.30706V1.30441L123.742 1.45258L123.545 6.07483L131.022 6.02191Z" fill="#DC7171"/>
<path d="M140.102 11.8427L139.862 16.4094L144.001 16.2877L144.424 0.0661455L150.83 0L151.477 21.6904L133.19 21.8783L132.543 6.92411L143.03 6.80241L143.044 11.9221L140.102 11.84V11.8427Z" fill="white"/>
<path d="M164.149 16.6925L164.417 21.8122L153.366 21.6904L154.013 6.73627L172.3 6.92412L171.653 21.8783L165.247 21.8122L164.824 12.3269L160.685 12.2052L160.925 16.7719L164.149 16.6925Z" fill="white"/>
<path d="M182 7.42417L181.408 21.8254L174.919 22L174.272 7.46386L182 7.42417Z" fill="white"/>
<path d="M181.917 6.02191L181.804 1.30706V1.30441L174.637 1.45258L174.441 6.07483L181.917 6.02191Z" fill="#DC7171"/>
</g>
<defs>
<clipPath id="clip0_5_20">
<rect width="182" height="22" fill="white"/>
</clipPath>
</defs>
</svg>
