<svg width="33" height="32" viewBox="0 0 33 32" fill="none" xmlns="http://www.w3.org/2000/svg">
<path d="M15.5467 8.14406L15.4391 3.66895V3.66644L8.63671 3.80707L8.45038 8.19429L15.5467 8.14406Z" fill="#DC7171"/>
<path d="M17.1266 15.3665L16.9927 3.66644L32.8546 4.17874L32.8152 9.48508L23.8765 9.69101V11.685L32.8572 11.7879L32.7233 22.8476L17.1292 22.7195L17.1686 17.1571L26.1099 17.3354V15.3288L17.1292 15.3665H17.1266Z" fill="#2A215F"/>
<path d="M0.857178 9.36133L15.2493 9.87363L15.21 15.18L7.74096 15.3859V23.0327L15.21 22.8544L15.2493 28.4169L1.12487 28.545L0.857178 9.36133ZM14.609 21.0991L8.74348 20.7274L8.89044 17.3648L14.651 17.3271L14.6116 21.0991H14.609Z" fill="#2A215F"/>
<path d="M14.609 21.0991L8.74347 20.7274L8.89044 17.3648L14.651 17.3271L14.6116 21.0991H14.609Z" fill="#DC7171"/>
</svg>
